<svg viewBox="0 0 724 178">
  <g transform="translate(.714844 .471094)">
    <path d="m11.2328125 130.4125c0 11.808854 2.7670573 20.932943 8.3011719 27.372266s13.4238281 9.658984 23.6691406 9.658984c6.0704799 0 12.9635354-1.052131 20.6791663-3.156394l.8606775-.238137v9.196094l-.5725846.209979c-6.1504897 2.205326-13.674472 3.307989-22.5719467 3.307989-13.2901042 0-23.5457031-4.032291-30.7667969-12.096875-7.22109372-8.064583-10.8316406-19.523698-10.8316406-34.377343 0-6.885383.95310358-13.139123 2.85931075-18.76122l11.82991305.000064c-2.3042742 5.316167-3.4564113 11.611032-3.4564113 18.884593zm155.5195315-.123437c0 14.442187-3.651693 25.798437-10.955078 34.06875-7.303386 8.270312-17.45612 12.405468-30.458203 12.405468-13.290105 0-23.545704-4.063151-30.7667974-12.189453-7.2210937-8.126302-10.8316406-19.595703-10.8316406-34.408203 0-6.952524.8111579-13.165328 2.4334738-18.638411l11.5452426.000436c-1.9128943 5.199066-2.8693414 11.45287-2.8693414 18.761413 0 12.220312 2.602474 21.488411 7.807422 27.804296 5.204948 6.315886 12.765495 9.473829 22.681641 9.473829 9.998437 0 17.548697-3.147657 22.650781-9.442969 5.102083-6.295313 7.653125-15.573698 7.653125-27.835156 0-7.32013-.92407-13.574026-2.772209-18.761688l11.344209.000183c1.691583 5.527506 2.537375 11.78134 2.537375 18.761505zm423.332031.123437c0 11.808854 2.767057 20.932943 8.301172 27.372266 5.534114 6.439323 13.423828 9.658984 23.669141 9.658984 6.070479 0 12.963535-1.052131 20.679166-3.156394l.860677-.238137v9.196094l-.572584.209979c-6.15049 2.205326-13.674472 3.307989-22.571947 3.307989-13.290104 0-23.545703-4.032291-30.766797-12.096875-7.221094-8.064583-10.831641-19.523698-10.831641-34.377343 0-6.885383.953104-13.139123 2.859311-18.76122l11.829913.000064c-2.304274 5.316167-3.456411 11.611032-3.456411 18.884593zm-309.843375-18.884157.000406 64.000563h-10.492187v-58.139062l.00299-1.182267c.007697-1.52954.030256-3.088805.067677-4.677794zm-16.251 0-24.729844 64.000563h-8.455468l-24.494688-64.000563h10.432l18.506437 48.200563h.493751l18.664812-48.200563zm-63.429527 5.343121.002027 1.259005v57.398437h-9.689844l-.000656-64.000563 9.631306-.002c.03216 1.727416.051216 3.509123.057167 5.345121zm197.798527-5.343121.000375 64.000563h-10.492187v-58.139062l.002989-1.182267c.007698-1.52954.030257-3.088805.067678-4.677794zm-16.251 0-24.729875 64.000563h-8.455469l-24.494656-64.000563h10.432l18.506406 48.200563h.49375l18.664844-48.200563zm-63.429558 5.343121.002027 1.259005v57.398437h-9.689844l-.000625-64.000563 9.631275-.002c.03216 1.727416.051216 3.509123.057167 5.345121zm118.921558-5.343121.000781 12.156813h37.401563v9.257813h-37.401563v33.204687h39.808594v9.38125h-50.300781l-.000594-64.000563zm103.325016 23.292149-.450797.159196 24.502343 40.549218h-12.405468l-21.848438-37.525h-18.824218v37.525h-10.492188l-.00025-64.000563h10.492l.000438 17.464626h14.380468c7.40625 0 12.8375-1.470964 16.29375-4.412891 3.41944-2.910594 5.147368-7.260986 5.183787-13.051175l10.85517-.000231c-.244266 11.377674-6.139799 19.141614-17.686597 23.29182zm136.849984-23.292149v12.156813h37.401563v9.257813h-37.401563v33.204687h39.808594v9.38125h-50.300782l-.000812-64.000563z"></path>
    <path d="m9.35625 91.5289062v-44.3757812h52.7078125v44.3757812h6.3570313v-90.23281245h-6.3570313v40.05546875h-52.7078125v-40.05546875h-6.2953125v90.23281245zm153.929688 0v-5.8015624h-43.017969v-38.6976563h40.610937v-5.8015625h-40.610937v-34.13046875h43.017969v-5.8015625h-49.313282v90.23281245zm34.627343 0 12.590625-31.846875h36.660938l12.528906 31.846875h7.097656l-35.55-90.60312495h-4.011718l-36.290625 90.60312495zm47.153125-37.525h-32.278906l12.652344-32.4023437c1.316666-3.209375 2.530469-6.7890625 3.641406-10.7390625 1.440104 4.5260417 2.674479 8.0645833 3.703125 10.615625zm76.102344 37.525c15.388542 0 27.053385-3.8779947 34.994531-11.6339843s11.911719-19.2048177 11.911719-34.3464844c0-14.4421875-3.754557-25.428125-11.263672-32.9578125-7.509114-7.5296875-18.464193-11.29453125-32.865234-11.29453125h-24.378906v90.23281245zm-.370312-5.5546875h-14.935938v-79.12343745h16.602344c12.714062 0 22.352474 3.26080725 28.915234 9.78242185 6.562761 6.5216146 9.844141 16.2423177 9.844141 29.1621094 0 26.7859375-13.475261 40.1789062-40.425781 40.1789062zm137.327343 5.5546875v-5.925h-43.017969v-84.30781245h-6.295312v90.23281245zm84.866406 0v-5.8015624h-43.017968v-38.6976563h40.610937v-5.8015625h-40.610937v-34.13046875h43.017968v-5.8015625h-49.313281v90.23281245zm59.870313 1.234375c9.175521 0 16.530339-2.201302 22.064453-6.6039062 5.534115-4.4026042 8.301172-10.36875 8.301172-17.8984375 0-4.1145833-.81263-7.6222656-2.437891-10.5230469-1.62526-2.9007812-4.207161-5.4929687-7.745703-7.7765625-3.538541-2.2835937-8.825781-4.6391927-15.861718-7.0667969-6.706771-2.3864583-11.438542-4.4334635-14.195313-6.1410156s-4.742057-3.6311198-5.955859-5.7707031-1.820703-4.8757813-1.820703-8.2085938c0-5.3078125 1.975-9.5046875 5.925-12.590625 3.95-3.08593745 9.257812-4.6289062 15.923437-4.6289062 6.830208 0 13.989583 1.56354167 21.478125 4.690625l2.283594-5.43125c-7.447396-3.209375-15.409115-4.8140625-23.885156-4.8140625-8.311459 0-15.110808 2.12929687-20.398047 6.38789062-5.28724 4.25859378-7.93086 9.76184898-7.93086 16.50976558 0 6.1307292 1.758985 11.0373698 5.276953 14.7199219 3.517969 3.6825521 9.885287 7.1079427 19.101954 10.2761719 6.295312 2.1395833 11.068229 4.1351562 14.31875 5.9867187 3.25052 1.8515625 5.595833 3.8985678 7.035937 6.1410157s2.160156 5.0712239 2.160156 8.4863281c0 5.5135417-2.170442 9.9675781-6.511328 13.3621094-4.340885 3.3945312-10.214453 5.0917969-17.620703 5.0917969-10.080729 0-18.371615-1.3783855-24.872656-4.1351563v6.2953125c5.883854 2.4276042 14.339323 3.6414062 25.366406 3.6414062zm88.878125 0c9.175521 0 16.530339-2.201302 22.064453-6.6039062 5.534115-4.4026042 8.301172-10.36875 8.301172-17.8984375 0-4.1145833-.81263-7.6222656-2.437891-10.5230469-1.62526-2.9007812-4.207161-5.4929687-7.745703-7.7765625-3.538541-2.2835937-8.825781-4.6391927-15.861718-7.0667969-6.706771-2.3864583-11.438542-4.4334635-14.195313-6.1410156s-4.742057-3.6311198-5.955859-5.7707031-1.820704-4.8757813-1.820704-8.2085938c0-5.3078125 1.975-9.5046875 5.925001-12.590625 3.949999-3.08593745 9.257812-4.6289062 15.923437-4.6289062 6.830208 0 13.989583 1.56354167 21.478125 4.690625l2.283594-5.43125c-7.447396-3.209375-15.409115-4.8140625-23.885157-4.8140625-8.311458 0-15.110807 2.12929687-20.398046 6.38789062-5.28724 4.25859378-7.93086 9.76184898-7.93086 16.50976558 0 6.1307292 1.758985 11.0373698 5.276953 14.7199219 3.517969 3.6825521 9.885287 7.1079427 19.101954 10.2761719 6.295312 2.1395833 11.068229 4.1351562 14.318749 5.9867187 3.250521 1.8515625 5.595834 3.8985678 7.035938 6.1410157s2.160156 5.0712239 2.160156 8.4863281c0 5.5135417-2.170442 9.9675781-6.511328 13.3621094-4.340885 3.3945312-10.214453 5.0917969-17.620703 5.0917969-10.080729 0-18.371615-1.3783855-24.872656-4.1351563v6.2953125c5.883854 2.4276042 14.339323 3.6414062 25.366406 3.6414062z"></path>
  </g>
</svg>