<svg fill="none" viewBox="0 0 380 60"  xmlns="http://www.w3.org/2000/svg"><g fill="#2c7ea1"><path d="m130.799 16.4375c-3.632 0-6.504 1.2139-8.612 3.6427-2.094 2.4129-3.143 5.7236-3.143 9.932 0 4.3278 1.011 7.6765 3.03 10.044 2.033 2.3527 4.926 3.5285 8.68 3.5285 2.305 0 4.934-.4145 7.888-1.2446v3.371c-2.291.8586-5.117 1.2889-8.476 1.2889-4.867 0-8.627-1.4771-11.279-4.4336-2.637-2.9554-3.955-7.1563-3.955-12.5997 0-3.409.634-6.395 1.898-8.9592 1.281-2.5641 3.12-4.5393 5.516-5.9266 2.41-1.3873 5.244-2.0809 8.499-2.0809 3.465 0 6.494.6334 9.087 1.9001l-1.628 3.3033c-2.503-1.1769-5.004-1.7659-7.505-1.7659z"/><path d="m164.932 34.4784c0 3.9315-.983 7.006-2.949 9.2207-1.967 2.2013-4.684 3.3009-8.149 3.3009-2.142 0-4.042-.5051-5.703-1.5183-1.66-1.0132-2.942-2.4646-3.845-4.3573-.904-1.8927-1.354-4.1084-1.354-6.646 0-3.9315.975-6.9906 2.927-9.1775 1.951-2.2003 4.661-3.3009 8.128-3.3009 3.348 0 6.007 1.1222 7.974 3.3667 1.98 2.2455 2.971 5.2831 2.971 9.1117zm-18.242 0c0 3.0808.611 5.4281 1.835 7.0421 1.224 1.6139 3.022 2.4214 5.396 2.4214s4.172-.7993 5.395-2.3988c1.239-1.6129 1.857-3.9685 1.857-7.0637 0-3.0663-.618-5.3921-1.857-6.9762-1.223-1.5995-3.037-2.3988-5.438-2.3988-2.374 0-4.167.7849-5.376 2.3546-1.208 1.5687-1.812 3.9088-1.812 7.0194z"/><path d="m201.322 47v-15.9714c0-1.9569-.407-3.4207-1.219-4.3902-.813-.9853-2.073-1.4785-3.785-1.4785-2.247 0-3.908.6649-4.981 1.9936s-1.61 3.3756-1.61 6.1377v13.7088h-3.611v-15.9714c0-1.9569-.406-3.4207-1.218-4.3902-.812-.9853-2.083-1.4785-3.807-1.4785-2.263 0-3.923.7016-4.982 2.1056-1.043 1.3884-1.566 3.673-1.566 6.8539v12.8806h-3.611v-24.5508h2.937l.588 3.3599h.173c.681-1.1947 1.64-2.1286 2.871-2.7998 1.248-.6722 2.64-1.0082 4.176-1.0082 3.728 0 6.164 1.3894 7.31 4.1661h.174c.71-1.2847 1.741-2.3003 3.089-3.0469 1.348-.7465 2.887-1.1203 4.611-1.1203 2.698 0 4.715.7172 6.048 2.1506 1.35 1.4187 2.023 3.696 2.023 6.8319v16.0165h-3.61z"/><path d="m242.321 47v-15.9714c0-1.9569-.407-3.4207-1.218-4.3902-.812-.9853-2.074-1.4785-3.786-1.4785-2.247 0-3.909.6649-4.98 1.9936-1.074 1.3287-1.611 3.3756-1.611 6.1377v13.7088h-3.611v-15.9714c0-1.9569-.405-3.4207-1.217-4.3902-.813-.9853-2.082-1.4785-3.807-1.4785-2.263 0-3.924.7016-4.981 2.1056-1.044 1.3884-1.566 3.673-1.566 6.8539v12.8806h-3.612v-24.5508h2.937l.588 3.3599h.175c.681-1.1947 1.638-2.1286 2.87-2.7998 1.248-.6722 2.64-1.0082 4.177-1.0082 3.725 0 6.163 1.3894 7.308 4.1661h.175c.711-1.2847 1.74-2.3003 3.088-3.0469 1.349-.7465 2.886-1.1203 4.613-1.1203 2.696 0 4.711.7172 6.045 2.1506 1.348 1.4187 2.024 3.696 2.024 6.8319v16.0165h-3.611z"/><path d="m263.237 47c-3.495 0-6.256-1.0853-8.285-3.2568-2.014-2.1715-3.02-5.1866-3.02-9.0452 0-3.8884.934-6.9765 2.804-9.2653 1.884-2.2888 4.409-3.4327 7.573-3.4327 2.963 0 5.308.9978 7.033 2.9935 1.727 1.9802 2.59 4.5992 2.59 7.857v2.3104h-16.289c.071 2.832.77 4.9809 2.093 6.4488 1.336 1.4679 3.215 2.2014 5.63 2.2014 2.546 0 5.063-.5431 7.551-1.6284v3.2568c-1.266.5575-2.466.9536-3.603 1.1881-1.121.2479-2.481.3724-4.077.3724zm-.971-21.9417c-1.899 0-3.416.6305-4.553 1.8927-1.121 1.2612-1.784 3.0069-1.985 5.237h12.364c0-2.3032-.505-4.0643-1.512-5.2812-1.005-1.2324-2.443-1.8485-4.314-1.8485z"/><path d="m289.026 22c1.079 0 2.048.089 2.906.2691l-.51 3.4491c-1.005-.2241-1.893-.3361-2.663-.3361-1.966 0-3.652.8072-5.057 2.4197-1.391 1.6136-2.087 3.6219-2.087 6.026v13.1722h-3.683v-24.5519h3.039l.421 4.5475h.178c.902-1.5978 1.99-2.8302 3.262-3.6962 1.273-.8659 2.669-1.2994 4.194-1.2994z"/><path d="m305.644 47c-3.407 0-6.048-1.0708-7.922-3.2124-1.86-2.1571-2.79-5.2019-2.79-9.1333 0-4.0343.943-7.1521 2.832-9.3534 1.904-2.2003 4.61-3.3009 8.115-3.3009 1.13 0 2.261.1245 3.392.3744 1.13.249 2.017.5431 2.661.8795l-1.095 3.1034c-.787-.322-1.646-.5863-2.575-.792-.931-.2202-1.753-.3302-2.47-.3302-4.779 0-7.17 3.125-7.17 9.375 0 2.9635.58 5.2378 1.739 6.8229 1.174 1.5841 2.906 2.3772 5.195 2.3772 1.961 0 3.972-.4331 6.032-1.2992v3.2361c-1.572.8353-3.555 1.2529-5.944 1.2529z"/><path d="m327.237 47c-3.496 0-6.257-1.0853-8.284-3.2568-2.014-2.1715-3.021-5.1866-3.021-9.0452 0-3.8884.935-6.9765 2.804-9.2653 1.885-2.2888 4.409-3.4327 7.574-3.4327 2.962 0 5.306.9978 7.032 2.9935 1.725 1.9802 2.59 4.5992 2.59 7.857v2.3104h-16.289c.072 2.832.77 4.9809 2.093 6.4488 1.337 1.4679 3.214 2.2014 5.631 2.2014 2.544 0 5.063-.5431 7.55-1.6284v3.2568c-1.266.5575-2.466.9536-3.603 1.1881-1.122.2479-2.48.3724-4.077.3724zm-.971-21.9417c-1.898 0-3.417.6305-4.552 1.8927-1.122 1.2612-1.784 3.0069-1.985 5.237h12.362c0-2.3032-.504-4.0643-1.511-5.2812-1.006-1.2324-2.444-1.8485-4.314-1.8485z"/><path d="m340.19 43.908c0-.955.213-1.676.642-2.161.441-.499 1.069-.749 1.882-.749.828 0 1.47.25 1.926.749.471.485.706 1.206.706 2.161 0 .927-.235 1.641-.706 2.14-.47.499-1.112.749-1.926.749-.728 0-1.333-.222-1.818-.664-.471-.457-.706-1.198-.706-2.225z"/><path d="m349.538 55.702c-1.354 0-2.453-.179-3.295-.535v-2.888c.985.285 1.954.428 2.909.428 1.113 0 1.926-.307 2.439-.92.528-.6.792-1.52.792-2.76v-27.3h3.552v27.043c.001 4.621-2.132 6.932-6.397 6.932zm2.546-40.329c0-.813.199-1.405.6-1.776.399-.385.897-.578 1.497-.578.57 0 1.062.192 1.477.578.413.385.62.977.62 1.776s-.207 1.398-.62 1.797c-.414.385-.906.578-1.477.578-.6 0-1.098-.192-1.497-.578-.4-.399-.6-.998-.6-1.797z"/><path d="m378.932 39.9806c0 2.2445-.832 3.9757-2.494 5.1936-1.664 1.2179-3.996 1.8258-7.002 1.8258-3.179 0-5.658-.5051-7.439-1.5183v-3.3893c1.153.5863 2.385 1.0492 3.698 1.3866 1.328.3374 2.604.5061 3.829.5061 1.896 0 3.354-.3004 4.375-.9022 1.022-.6171 1.531-1.548 1.531-2.7958 0-.9381-.407-1.7374-1.224-2.3977-.803-.6748-2.378-1.4679-4.726-2.3783-2.231-.8352-3.822-1.5624-4.77-2.1776-.932-.6305-1.634-1.3434-2.1-2.1354-.452-.7921-.678-1.7374-.678-2.838 0-1.9658.793-3.5139 2.385-4.6433 1.59-1.1449 3.77-1.7168 6.541-1.7168 2.581 0 5.105.5287 7.569 1.5851l-1.29 2.9707c-2.408-.9977-4.587-1.4966-6.542-1.4966-1.721 0-3.019.2715-3.896.8146-.874.5421-1.311 1.291-1.311 2.2445 0 .645.16 1.1963.481 1.651.335.4536.868.8867 1.597 1.2981.731.4105 2.131 1.006 4.202 1.7827 2.844 1.042 4.761 2.0902 5.754 3.1466 1.006 1.0564 1.51 2.3843 1.51 3.9839z"/><path d="m53.688.756117c1.0081-1.008156 2.6427-1.008156 3.6514 0l34.8362 34.842083c1.0082 1.0081 1.0082 2.6432 0 3.652l-3.1852 3.1851-38.487-38.49285z"/><path d="m61.0131 22.2828-21.2123-21.20591c-1.0082-1.0081522-2.6444-1.0081529-3.6514.00118l-34.39343 34.41453c-1.008156 1.0087-1.008155 2.6438.00117 3.652l19.38836 19.3813c1.0082 1.0076 2.6403 1.0088 3.6502.0012l22.1302-22.0874 22.1952 22.1003c1.0064 1.0023 2.6322 1.0035 3.6409.0023l12.1213-12.0316zm-31.1291 14.673c-3.9933 0-7.101-3.2514-7.101-7.101 0-3.8514 3.1077-7.1017 7.101-7.1017 3.9934 0 7.1011 3.2509 7.1011 7.1017-.0012 3.8508-3.1089 7.101-7.1011 7.101z"/><path d="m32.4299 30.4688c-.007-.3331-.1419-.6316-.4052-.8949-.1965-.1971-.4088-.3121-.6352-.3455-.2305-.0363-.4504-.0234-.6604.0399-.207.0604-.4686.1583-.7853.295-.2903.1296-.512.2217-.665.2751-.1537.0463-.2886.0645-.4053.0551-.1132-.0135-.2199-.0704-.3202-.1701-.1402-.1402-.2-.2968-.1801-.4704.02-.1735.0605-.36.3936-.6938l.6627-.6627-.4399-.4398-.4862.4862c-.0234.0099-.0416.0082-.0551-.0047l-.3654-.3854c-.0164-.0164-.0363-.0234-.0604-.0199-.0234-.0035-.0434.0035-.0598.0199l-.3906.3901c-.0164.017-.0246.0381-.0246.0651 0 .0199.0082.0381.0246.0551l.3801.3601c.0129.0135.0146.0317.0046.0551-.2269.3067-.3366.6205-.3301.9407.0099.3167.1419.6017.3952.8551.1965.1971.4088.3155.6352.3548.2234.037.4434.0235.6598-.0393.217-.0633.4803-.1636.7906-.3002.2832-.1168.502-.1989.6551-.2452.1536-.0534.2903-.0733.4105-.0604.1167.01.2217.0616.3149.1554.1367.1361.1983.2985.1848.485-.01.183-.088.4018-.2851.5982l-.9665.932.4176.4498.6639-.5988c.0235-.01.0416-.0082.0551.0053l.3302.3401c.0164.0164.0352.0247.0551.0247.0264 0 .0487-.0083.0651-.0247l.3906-.39c.0165-.017.0235-.0363.02-.0604.0029-.0235-.0035-.0434-.02-.0604l-.3348-.3255c-.0135-.0129-.0153-.0317-.0053-.0551.2545-.3273.3783-.6575.3712-.9906z"/></g></svg>